<svg width="130" height="22" viewBox="0 0 130 22" fill="none" xmlns="http://www.w3.org/2000/svg">
<path d="M35.808 5.44C36.6187 5.44 37.312 5.57867 37.888 5.856C38.464 6.12267 38.9067 6.512 39.216 7.024C39.536 7.52533 39.696 8.13333 39.696 8.848C39.696 9.56267 39.536 10.176 39.216 10.688C38.9067 11.1893 38.464 11.5787 37.888 11.856C37.312 12.1227 36.6187 12.256 35.808 12.256H33.584V16H31.376V5.44H35.808ZM35.472 10.512C36.1333 10.512 36.6293 10.3733 36.96 10.096C37.2907 9.808 37.456 9.392 37.456 8.848C37.456 8.29333 37.2907 7.87733 36.96 7.6C36.6293 7.32267 36.1333 7.184 35.472 7.184H33.584V10.512H35.472ZM41.4958 16V4.496H43.6878V9.36C43.9438 8.848 44.2958 8.46933 44.7438 8.224C45.1918 7.968 45.6984 7.84 46.2638 7.84C46.8184 7.84 47.3091 7.94667 47.7358 8.16C48.1731 8.37333 48.5144 8.69867 48.7598 9.136C49.0158 9.56267 49.1438 10.1013 49.1438 10.752V16H46.9518V11.392C46.9518 10.6987 46.8184 10.224 46.5518 9.968C46.2851 9.70133 45.9438 9.568 45.5278 9.568C45.2184 9.568 44.9198 9.64267 44.6318 9.792C44.3544 9.93067 44.1251 10.1653 43.9438 10.496C43.7731 10.816 43.6878 11.2427 43.6878 11.776V16H41.4958ZM55.05 7.84C55.8607 7.84 56.57 8.00533 57.178 8.336C57.7967 8.66667 58.2767 9.14133 58.618 9.76C58.97 10.3787 59.146 11.1253 59.146 12C59.146 12.864 58.97 13.6107 58.618 14.24C58.2767 14.8587 57.7967 15.3333 57.178 15.664C56.57 15.9947 55.8607 16.16 55.05 16.16C54.25 16.16 53.5407 15.9947 52.922 15.664C52.3033 15.3333 51.818 14.8587 51.466 14.24C51.1247 13.6107 50.954 12.864 50.954 12C50.954 11.1253 51.1247 10.3787 51.466 9.76C51.818 9.14133 52.3033 8.66667 52.922 8.336C53.5407 8.00533 54.25 7.84 55.05 7.84ZM55.05 9.472C54.6447 9.472 54.298 9.568 54.01 9.76C53.7327 9.94133 53.5193 10.2187 53.37 10.592C53.2207 10.9653 53.146 11.4347 53.146 12C53.146 12.5653 53.2207 13.0347 53.37 13.408C53.5193 13.7813 53.7327 14.064 54.01 14.256C54.298 14.4373 54.6447 14.528 55.05 14.528C55.4447 14.528 55.7807 14.4373 56.058 14.256C56.346 14.064 56.5647 13.7813 56.714 13.408C56.8633 13.0347 56.938 12.5653 56.938 12C56.938 11.4347 56.8633 10.9653 56.714 10.592C56.5647 10.2187 56.346 9.94133 56.058 9.76C55.7807 9.568 55.4447 9.472 55.05 9.472ZM63.734 5.552V13.392C63.734 13.776 63.83 14.0587 64.022 14.24C64.2247 14.4107 64.4967 14.496 64.838 14.496C65.1047 14.496 65.3393 14.4587 65.542 14.384C65.7447 14.2987 65.926 14.1867 66.086 14.048L66.438 15.504C66.182 15.7067 65.862 15.8667 65.478 15.984C65.094 16.1013 64.6887 16.16 64.262 16.16C63.7287 16.16 63.254 16.08 62.838 15.92C62.4327 15.76 62.1127 15.504 61.878 15.152C61.654 14.8 61.542 14.3307 61.542 13.744V6.16L63.734 5.552ZM66.294 8V9.632H60.07V8H66.294ZM71.425 7.84C72.2357 7.84 72.945 8.00533 73.553 8.336C74.1717 8.66667 74.6517 9.14133 74.993 9.76C75.345 10.3787 75.521 11.1253 75.521 12C75.521 12.864 75.345 13.6107 74.993 14.24C74.6517 14.8587 74.1717 15.3333 73.553 15.664C72.945 15.9947 72.2357 16.16 71.425 16.16C70.625 16.16 69.9157 15.9947 69.297 15.664C68.6783 15.3333 68.193 14.8587 67.841 14.24C67.4997 13.6107 67.329 12.864 67.329 12C67.329 11.1253 67.4997 10.3787 67.841 9.76C68.193 9.14133 68.6783 8.66667 69.297 8.336C69.9157 8.00533 70.625 7.84 71.425 7.84ZM71.425 9.472C71.0197 9.472 70.673 9.568 70.385 9.76C70.1077 9.94133 69.8943 10.2187 69.745 10.592C69.5957 10.9653 69.521 11.4347 69.521 12C69.521 12.5653 69.5957 13.0347 69.745 13.408C69.8943 13.7813 70.1077 14.064 70.385 14.256C70.673 14.4373 71.0197 14.528 71.425 14.528C71.8197 14.528 72.1557 14.4373 72.433 14.256C72.721 14.064 72.9397 13.7813 73.089 13.408C73.2383 13.0347 73.313 12.5653 73.313 12C73.313 11.4347 73.2383 10.9653 73.089 10.592C72.9397 10.2187 72.721 9.94133 72.433 9.76C72.1557 9.568 71.8197 9.472 71.425 9.472ZM85.8398 5.44L81.9998 16H79.4238L75.5678 5.44H77.9038L80.1278 12.16L80.7358 14.24L81.3278 12.176L83.5677 5.44H85.8398ZM88.3185 6.848C87.8598 6.848 87.5185 6.752 87.2945 6.56C87.0705 6.35733 86.9585 6.064 86.9585 5.68C86.9585 5.28533 87.0705 4.992 87.2945 4.8C87.5185 4.59733 87.8598 4.496 88.3185 4.496C88.7772 4.496 89.1185 4.59733 89.3425 4.8C89.5665 4.992 89.6785 5.28533 89.6785 5.68C89.6785 6.064 89.5665 6.35733 89.3425 6.56C89.1185 6.752 88.7772 6.848 88.3185 6.848ZM89.4065 8V16H87.2145V8H89.4065ZM95.4421 16.16C94.5995 16.16 93.8635 15.9947 93.2341 15.664C92.6155 15.3333 92.1355 14.8587 91.7941 14.24C91.4528 13.6213 91.2821 12.8747 91.2821 12C91.2821 11.1253 91.4528 10.3787 91.7941 9.76C92.1355 9.14133 92.6101 8.66667 93.2181 8.336C93.8368 8.00533 94.5408 7.84 95.3301 7.84C96.1408 7.84 96.8288 8.00533 97.3941 8.336C97.9595 8.656 98.3915 9.09867 98.6901 9.664C98.9888 10.2187 99.1381 10.8533 99.1381 11.568C99.1381 11.7813 99.1328 11.984 99.1221 12.176C99.1115 12.368 99.0955 12.5387 99.0741 12.688H92.6901V11.168H98.1141L97.0581 11.552C97.0581 10.88 96.9035 10.3627 96.5941 10C96.2955 9.63733 95.8688 9.456 95.3141 9.456C94.9088 9.456 94.5568 9.552 94.2581 9.744C93.9701 9.936 93.7515 10.224 93.6021 10.608C93.4528 10.9813 93.3781 11.456 93.3781 12.032C93.3781 12.5973 93.4581 13.0667 93.6181 13.44C93.7888 13.8027 94.0235 14.0747 94.3221 14.256C94.6315 14.4373 94.9995 14.528 95.4261 14.528C95.8955 14.528 96.2741 14.4373 96.5621 14.256C96.8501 14.0747 97.0741 13.824 97.2341 13.504L98.9781 14.176C98.8075 14.592 98.5461 14.9493 98.1941 15.248C97.8528 15.5467 97.4421 15.776 96.9621 15.936C96.4928 16.0853 95.9861 16.16 95.4421 16.16ZM111.097 8H113.433L110.873 16H108.345L106.601 10.56L104.921 16H102.393L99.833 8H102.169L103.769 14.128L105.545 8H107.721L109.513 14.128L111.097 8ZM118.286 16.16C117.443 16.16 116.707 15.9947 116.078 15.664C115.459 15.3333 114.979 14.8587 114.638 14.24C114.297 13.6213 114.126 12.8747 114.126 12C114.126 11.1253 114.297 10.3787 114.638 9.76C114.979 9.14133 115.454 8.66667 116.062 8.336C116.681 8.00533 117.385 7.84 118.174 7.84C118.985 7.84 119.673 8.00533 120.238 8.336C120.803 8.656 121.235 9.09867 121.534 9.664C121.833 10.2187 121.982 10.8533 121.982 11.568C121.982 11.7813 121.977 11.984 121.966 12.176C121.955 12.368 121.939 12.5387 121.918 12.688H115.534V11.168H120.958L119.902 11.552C119.902 10.88 119.747 10.3627 119.438 10C119.139 9.63733 118.713 9.456 118.158 9.456C117.753 9.456 117.401 9.552 117.102 9.744C116.814 9.936 116.595 10.224 116.446 10.608C116.297 10.9813 116.222 11.456 116.222 12.032C116.222 12.5973 116.302 13.0667 116.462 13.44C116.633 13.8027 116.867 14.0747 117.166 14.256C117.475 14.4373 117.843 14.528 118.27 14.528C118.739 14.528 119.118 14.4373 119.406 14.256C119.694 14.0747 119.918 13.824 120.078 13.504L121.822 14.176C121.651 14.592 121.39 14.9493 121.038 15.248C120.697 15.5467 120.286 15.776 119.806 15.936C119.337 16.0853 118.83 16.16 118.286 16.16ZM123.84 16V8H125.744L125.888 9.568C126.101 9.01333 126.41 8.58667 126.816 8.288C127.232 7.98933 127.749 7.84 128.368 7.84C128.549 7.84 128.714 7.856 128.864 7.888C129.013 7.92 129.136 7.96267 129.232 8.016L128.976 9.856C128.869 9.81333 128.736 9.78133 128.576 9.76C128.426 9.73867 128.229 9.728 127.984 9.728C127.664 9.728 127.354 9.808 127.056 9.968C126.757 10.1173 126.512 10.352 126.32 10.672C126.128 10.9813 126.032 11.376 126.032 11.856V16H123.84Z" fill="#434D7E"/>
<path d="M11 0L15.6669 6.3331L22 11L15.6669 15.6669L11 22L6.3331 15.6669L0 11L6.3331 6.3331L11 0Z" fill="#434D7E"/>
</svg>
