<svg width="131" height="131" viewBox="0 0 131 131" fill="none" xmlns="http://www.w3.org/2000/svg">
<path d="M114.625 60.0417V103.708C114.625 106.604 113.475 109.38 111.428 111.428C109.38 113.475 106.604 114.625 103.708 114.625H27.2917C24.3964 114.625 21.6197 113.475 19.5724 111.428C17.5251 109.38 16.375 106.604 16.375 103.708V27.2917C16.375 24.3964 17.5251 21.6197 19.5724 19.5724C21.6197 17.5251 24.3964 16.375 27.2917 16.375H70.9583" stroke="white" stroke-width="4" stroke-linecap="round" stroke-linejoin="round"/>
<path d="M46.396 54.5833C48.5675 54.5833 50.65 53.7207 52.1854 52.1853C53.7209 50.6498 54.5835 48.5673 54.5835 46.3958C54.5835 44.2244 53.7209 42.1418 52.1854 40.6064C50.65 39.0709 48.5675 38.2083 46.396 38.2083C44.2245 38.2083 42.142 39.0709 40.6066 40.6064C39.0711 42.1418 38.2085 44.2244 38.2085 46.3958C38.2085 48.5673 39.0711 50.6498 40.6066 52.1853C42.142 53.7207 44.2245 54.5833 46.396 54.5833Z" stroke="white" stroke-width="4" stroke-linecap="round" stroke-linejoin="round"/>
<path d="M114.625 81.875L87.3332 54.5833L27.2915 114.625" stroke="white" stroke-width="4" stroke-linecap="round" stroke-linejoin="round"/>
<path d="M103.708 10.9167V43.6667" stroke="white" stroke-width="4" stroke-linecap="round" stroke-linejoin="round"/>
<path d="M120.083 27.2917H87.3335" stroke="white" stroke-width="4" stroke-linecap="round" stroke-linejoin="round"/>
</svg>
